# xmcd
#
# Track frame offsets:
#	150
#	18252
#	34340
#	55552
#	75810
#	91750
#	112067
#
# Disc length: 1970 seconds
# Revision: 0
# Processed by: cddbd v1.5.2PL0 Copyright (c) Steve Scherf et al.
# Submitted via: dBpowerAMP V12.0
#
DISCID=4207b007
DTITLE=Letta Mbulu - Letta
DYEAR=1978
DGENRE=Disco
TTITLE0=Open Up Your Heart
TTITLE1=Buza (There's A Light At The End Of A Tunnel)
TTITLE2=I Need You
TTITLE3=Baile Baneso (By-Lay Bah-Neh-Su)
TTITLE4=I Can Depend On You
TTITLE5=Hareje (Ha-Ree-Gee)
TTITLE6=Mamani
EXTD=
EXTT0=
EXTT1=
EXTT2=
EXTT3=
EXTT4=
EXTT5=
EXTT6=
PLAYORDER=
